<?xml version="1.0" standalone="no"?>
<!DOCTYPE svg PUBLIC "-//W3C//DTD SVG 20010904//EN"
 "http://www.w3.org/TR/2001/REC-SVG-20010904/DTD/svg10.dtd">
<svg version="1.0" xmlns="http://www.w3.org/2000/svg"
 width="512.000000pt" height="512.000000pt" viewBox="0 0 512.000000 512.000000"
 preserveAspectRatio="xMidYMid meet">
<metadata>
Created by potrace 1.11, written by Peter Selinger 2001-2013
</metadata>
<g transform="translate(0.000000,512.000000) scale(0.100000,-0.100000)"
fill="#000000" stroke="none">
<path d="M95 5106 c-37 -16 -70 -52 -84 -89 -8 -20 -11 -762 -11 -2459 l0
-2432 21 -42 c15 -31 32 -48 63 -63 l42 -21 2438 0 c2422 0 2437 0 2476 20 26
13 47 34 60 60 20 39 20 54 20 2476 l0 2438 -21 42 c-15 31 -32 48 -63 63
l-42 21 -2435 0 c-2006 -1 -2439 -3 -2464 -14z m2406 -1226 c17 -23 19 -44 19
-222 0 -223 -4 -243 -59 -258 -21 -6 -178 -10 -368 -10 l-333 0 0 -1050 c0
-923 -2 -1055 -15 -1080 l-16 -30 -264 0 c-226 0 -266 2 -279 16 -14 14 -16
82 -16 602 0 323 -2 718 -4 877 -2 160 -5 374 -5 478 l-1 187 -344 0 -345 0
-25 24 -26 23 0 215 c0 219 3 237 40 252 8 3 467 4 1018 3 l1004 -3 19 -24z
m889 10 c13 -8 16 -135 20 -1012 5 -931 6 -1005 22 -1035 24 -43 79 -83 131
-96 26 -7 251 -12 579 -14 l537 -4 11 -37 c13 -48 13 -366 -1 -414 -7 -26 -17
-40 -32 -43 -46 -12 -1353 -1 -1368 11 -8 7 -29 15 -47 19 -44 9 -127 52 -187
97 -79 57 -148 152 -178 243 -48 145 -47 110 -47 1225 0 989 1 1050 18 1059
22 13 521 14 542 1z"/>
</g>
</svg>
